<svg xmlns="http://www.w3.org/2000/svg" width="301" height="111" viewBox="0 0 301 111">
  <g id="decline" transform="translate(-586 -684)">
    <path id="Прямоугольник_538_копия_4" data-name="Прямоугольник 538 копия 4" d="M836,795V781H798v14h-2V781H775v-2h21V768h2v11h38V741H800v-2h36V701H798v10h-2V701H765v-2h31V684h2v15h38V684h2v15h41v2H838v38h21v2H838v38h11v2H838v14Zm-180,0V781H618v14h-2V781h-8v-2h8V742H598v-2h18V701H578v-2h38V684h2v15h38V684h2v15h30v2H658v10h-2V701H618v39h35v2H618v37h38V768h2v11h20v2H658v14Zm207-10v-4h-4v-2h4v-4h2v4h4v2h-4v4ZM656,762v-4h-4v-2h4v-4h2v4h4v2h-4v4Zm-74-16v-4h-4v-2h4v-4h2v4h4v2h-4v4Zm214-15v-4h-4v-2h4v-4h2v4h4v2h-4v4Z" transform="translate(8)" fill="#dbdee5"/>
    <g id="Группа_90" data-name="Группа 90" transform="translate(-198.543 176.449)">
      <path id="Прямоугольник_скругл._углы_662" data-name="Прямоугольник, скругл. углы 662" d="M904.256,612.859H881.837A5.837,5.837,0,0,1,876,607.022V577.837A5.837,5.837,0,0,1,881.837,572h80.89m21.485,0h3.274a5.837,5.837,0,0,1,5.837,5.837v29.185a5.837,5.837,0,0,1-5.837,5.837H976.317" transform="translate(0 -22.964)" fill="none" stroke="#dbdee5" stroke-linecap="round" stroke-width="2"/>
      <path id="Forma_1" data-name="Forma 1" d="M924.781,586.593c5.23,9,14.259,17.067,29.353,22.3a3.185,3.185,0,0,0,2.088,0c38.162-13.221,37.564-44.551,37.128-67.427-.047-2.458-.092-4.78-.092-7.027a3.187,3.187,0,0,0-3.188-3.187c-13.635,0-24.016-3.917-32.669-12.327a3.188,3.188,0,0,0-4.445,0c-8.652,8.41-19.032,12.327-32.666,12.327a3.187,3.187,0,0,0-3.188,3.187c0,2.247-.044,5.737-.091,8.2" transform="translate(-17.073 -0.492)" fill="none" stroke="#212225" stroke-linecap="round" stroke-width="2"/>
      <path id="Forma_1_копия" data-name="Forma 1 копия" d="M936.843,588.681c4.006,4.736,10.191,9.116,19.1,12.219a2.459,2.459,0,0,0,1.62,0c29.611-10.315,29.147-34.759,28.808-52.607-.036-1.918-.071-3.73-.071-5.482a2.48,2.48,0,0,0-2.474-2.486c-10.58,0-18.635-3.056-25.349-9.617a2.464,2.464,0,0,0-3.449,0c-6.714,6.561-14.767,9.617-25.346,9.617a2.48,2.48,0,0,0-2.474,2.486c0,1.753-.034.915-.071,2.833" transform="translate(-19.291 -1.255)" fill="none" stroke="#007dff" stroke-linecap="round" stroke-width="2"/>
      <g id="Group_890" data-name="Group 890" transform="translate(19 5.842)">
        <path id="Прямоугольник_скругл._углы_3_копия_2" data-name="Прямоугольник, скругл. углы 3 копия 2" d="M228.019,87.8A5,5,0,0,1,223,82.815V69.988A5,5,0,0,1,228.019,65h8.6a5,5,0,0,1,5.019,4.988V82.815a5,5,0,0,1-5.019,4.988Z" transform="translate(669.795 486.836)" fill="none" stroke="#dbdee5" stroke-width="2"/>
        <path id="Прямоугольник_скругл._углы_3_копия_2-2" data-name="Прямоугольник, скругл. углы 3 копия 2" d="M228.019,87.8A5,5,0,0,1,223,82.815V69.988A5,5,0,0,1,228.019,65h8.6a5,5,0,0,1,5.019,4.988V82.815a5,5,0,0,1-5.019,4.988Z" transform="translate(693.795 486.836)" fill="none" stroke="#dbdee5" stroke-width="2"/>
        <path id="Прямоугольник_скругл._углы_3_копия_3" data-name="Прямоугольник, скругл. углы 3 копия 3" d="M194.019,87.8A5,5,0,0,1,189,82.815V69.988A5,5,0,0,1,194.019,65h8.6a5,5,0,0,1,5.019,4.988V82.815a5,5,0,0,1-5.019,4.988Z" transform="translate(679.418 486.836)" fill="#e6f2ff" stroke="#007dff" stroke-width="2"/>
        <path id="Shape_1749" data-name="Shape 1749" d="M215.761,4335.75l-5.369,7.612a.753.753,0,0,1-.63.354.865.865,0,0,1-.64-.31l-1.362-1.814" transform="translate(666.221 -3776.254)" fill="none" stroke="#007dff" stroke-linecap="round" stroke-linejoin="round" stroke-width="2"/>
      </g>
    </g>
  </g>
</svg>
