<svg xmlns="http://www.w3.org/2000/svg" width="311" height="141.745"><g id="Group_600" data-name="Group 600" transform="translate(-1283 -343)"><g id="Group_599" data-name="Group 599" transform="translate(1352.208 404.88)"><path id="Rectangle_335" data-name="Rectangle 335" transform="translate(122.791 34.12)" fill="#eef3f5" d="M0 0h8v2H0z"/><path id="Rectangle_336" data-name="Rectangle 336" transform="translate(122.791 17.12)" fill="#eef3f5" d="M0 0h8v2H0z"/><path id="Rectangle_337" data-name="Rectangle 337" transform="translate(18.791 34.12)" fill="#eef3f5" d="M0 0h7v2H0z"/><path id="Rectangle_338" data-name="Rectangle 338" transform="translate(18.791 17.12)" fill="#eef3f5" d="M0 0h7v2H0z"/><path id="Rectangle_331" data-name="Rectangle 331" transform="translate(18.791 55.12)" fill="#eef3f5" d="M0 0h8v6H0z"/><path id="Rectangle_332" data-name="Rectangle 332" transform="translate(122.791 55.12)" fill="#eef3f5" d="M0 0h8v6H0z"/><path id="Rectangle_333" data-name="Rectangle 333" transform="translate(14.791 50.12)" fill="#eef3f5" d="M0 0h16v3H0z"/><path id="Rectangle_334" data-name="Rectangle 334" transform="translate(117.791 50.12)" fill="#eef3f5" d="M0 0h16v3H0z"/><g id="Rectangle_328" data-name="Rectangle 328" transform="translate(6.791 5.12)" fill="none" stroke="#dbdee5" stroke-width="2"><rect width="134" height="14" rx="4" stroke="none"/><rect x="1" y="1" width="132" height="12" rx="3"/></g><g id="Rectangle_329" data-name="Rectangle 329" transform="translate(6.791 20.12)" fill="none" stroke="#dbdee5" stroke-width="2"><rect width="134" height="14" rx="4" stroke="none"/><rect x="1" y="1" width="132" height="12" rx="3"/></g><g id="Rectangle_330" data-name="Rectangle 330" transform="translate(-.209 42.12)" fill="none" stroke="#dbdee5" stroke-width="2"><rect width="149" height="9" rx="4" stroke="none"/><rect x="1" y="1" width="147" height="7" rx="3"/></g><path id="Path_497" data-name="Path 497" d="M19.104 5.369V0h6.564v5.369" fill="none" stroke="#dbdee5" stroke-width="2"/><path id="Path_498" data-name="Path 498" d="M19.104 17.896v3.037" fill="none" stroke="#dbdee5" stroke-width="2"/><path id="Path_499" data-name="Path 499" d="M25.668 17.896v3.375" fill="none" stroke="#dbdee5" stroke-width="2"/><path id="Path_500" data-name="Path 500" d="M19.104 34.144v9.124" fill="none" stroke="#dbdee5" stroke-width="2"/><path id="Path_501" data-name="Path 501" d="M25.668 34.144v9.463" fill="none" stroke="#dbdee5" stroke-width="2"/><path id="Path_502" data-name="Path 502" d="M122.77 5.369V0h6.564v5.369" fill="none" stroke="#dbdee5" stroke-width="2"/><path id="Path_503" data-name="Path 503" d="M122.77 17.896v3.037" fill="none" stroke="#dbdee5" stroke-width="2"/><path id="Path_504" data-name="Path 504" d="M129.334 17.896v3.375" fill="none" stroke="#dbdee5" stroke-width="2"/><path id="Path_505" data-name="Path 505" d="M122.77 34.144v9.124" fill="none" stroke="#dbdee5" stroke-width="2"/><path id="Path_506" data-name="Path 506" d="M129.334 34.144v9.463" fill="none" stroke="#dbdee5" stroke-width="2"/><path id="Path_507" data-name="Path 507" d="M14.564 50.519v4.724h15.97v-4.724" fill="none" stroke="#dbdee5" stroke-width="2"/><path id="Path_508" data-name="Path 508" d="M19.104 55.069v23.759" fill="none" stroke="#dbdee5" stroke-width="2"/><path id="Path_509" data-name="Path 509" d="M26.067 55.069v23.759" fill="none" stroke="#dbdee5" stroke-width="2"/><path id="Path_510" data-name="Path 510" d="M118.23 50.519v4.724h15.97v-4.724" fill="none" stroke="#dbdee5" stroke-width="2"/><path id="Path_511" data-name="Path 511" d="M122.77 55.069v23.759" fill="none" stroke="#dbdee5" stroke-width="2"/><path id="Path_512" data-name="Path 512" d="M129.733 55.069v23.759" fill="none" stroke="#dbdee5" stroke-width="2"/></g><g id="Ellipse_49" data-name="Ellipse 49" transform="translate(1374 416)" fill="#fff" stroke="#212225" stroke-width="2"><circle cx="1" cy="1" r="1" stroke="none"/><circle cx="1" cy="1" r="2" fill="none"/></g><g id="Ellipse_50" data-name="Ellipse 50" transform="translate(1374 431)" fill="#fff" stroke="#212225" stroke-width="2"><circle cx="1" cy="1" r="1" stroke="none"/><circle cx="1" cy="1" r="2" fill="none"/></g><g id="Ellipse_51" data-name="Ellipse 51" transform="translate(1477 416)" fill="#fff" stroke="#212225" stroke-width="2"><circle cx="1" cy="1" r="1" stroke="none"/><circle cx="1" cy="1" r="2" fill="none"/></g><g id="Ellipse_52" data-name="Ellipse 52" transform="translate(1477 431)" fill="#fff" stroke="#212225" stroke-width="2"><circle cx="1" cy="1" r="1" stroke="none"/><circle cx="1" cy="1" r="2" fill="none"/></g><path id="Path_513" data-name="Path 513" d="M1365.191 483.708h40.669" fill="none" stroke="#212225" stroke-width="2"/><path id="Path_514" data-name="Path 514" d="M1422.599 483.708h117.873" fill="none" stroke="#212225" stroke-width="2"/><g id="Ellipse_53" data-name="Ellipse 53" transform="translate(1504 356)" fill="none" stroke="#212225" stroke-width="2"><circle cx="25.5" cy="25.5" r="25.5" stroke="none"/><circle cx="25.5" cy="25.5" r="24.5"/></g><path id="Path_515" data-name="Path 515" d="M1526.467 406.029v77.328" fill="none" stroke="#212225" stroke-width="2"/><path id="Path_516" data-name="Path 516" d="M1531.883 410.436v36.29" fill="none" stroke="#dbdee5" stroke-linecap="round" stroke-width="2"/><path id="Path_517" data-name="Path 517" d="M1531.883 456.658v22.647" fill="none" stroke="#dbdee5" stroke-linecap="round" stroke-width="2"/><path id="Фигура_1_копия" data-name="Фигура 1 копия" fill="none" stroke="#dbdee5" stroke-width="2" d="M1305.224 483.745h58.234"/><path id="Прямоугольник_скругл._углы_13" data-name="Прямоугольник, скругл. углы 13" d="M1334.341 484.091a7.093 7.093 0 017.093-7.093h2.986a7.093 7.093 0 017.093 7.093" fill="none" stroke="#dbdee5" stroke-width="2"/><path id="Прямоугольник_скругл._углы_13_копия" data-name="Прямоугольник, скругл. углы 13 копия" d="M1311.943 483.718a3.575 3.575 0 013.392-3.733h1.428a3.575 3.575 0 013.392 3.733" fill="none" stroke="#dbdee5" stroke-width="2"/><path id="Прямоугольник_скругл._углы_13_копия_3" data-name="Прямоугольник, скругл. углы 13 копия 3" d="M1348.566 478.491h4.227a4.992 4.992 0 014.719 5.226" fill="none" stroke="#dbdee5" stroke-width="2"/><path id="Прямоугольник_скругл._углы_13_копия_4" data-name="Прямоугольник, скругл. углы 13 копия 4" d="M1509.197 479.754a7.345 7.345 0 016.28-3.529h3.095a7.349 7.349 0 017.349 7.349" fill="none" stroke="#212225" stroke-width="2"/><path id="Прямоугольник_скругл._углы_13_копия_5" data-name="Прямоугольник, скругл. углы 13 копия 5" d="M1502.711 483.961a4.56 4.56 0 014.474-4.642h1.884a4.56 4.56 0 014.474 4.642" fill="none" stroke="#212225" stroke-width="2"/><g id="logo" transform="translate(1283 343)"><g id="illustration"><path id="Прямоугольник_1_копия_14" data-name="Прямоугольник 1 копия 14" d="M20.888 136v-19.429H0v-1.554h20.888V103.36h1.547v11.657H42.55v1.554H22.435V136zm266.129-10.88V108.8h-16.246v-1.554h16.246V77.714h-8.51V76.16h8.51v-6.994h1.548v6.994h10.057v1.554h-10.057v29.532H311v1.554h-22.435v16.32zm-28.624-13.211V108.8H255.3v-1.554h3.094v-3.109h1.547v3.109h3.095v1.554h-3.096v3.108zM20.888 96.366v-3.109h-3.094V91.7h3.094v-3.106h1.547V91.7h3.095v1.555h-3.095v3.108zm41.776-9.326v-37.3h-14.7v-1.557h14.7V18.652h-8.51V17.1h8.51V0h1.547v17.1h29.4V0h1.547v17.1h9.283v1.554h-9.284v29.529h3.094v1.554h-3.094v6.217H93.61v-6.217h-29.4v37.3zM93.61 48.183V18.652h-29.4v29.531zm114.5 6.994V18.652h-6.963V17.1h6.963v-4.666h1.547V17.1h11.6v1.554h-11.6v36.523zM115.271 21.76v-3.108h-3.095V17.1h3.095v-3.111h1.547V17.1h3.094v1.554h-3.094v3.106z" fill="#dbdee5"/></g></g><g id="Ellipse_54" data-name="Ellipse 54" transform="translate(1509 361)" fill="none" stroke="#e5f0f8" stroke-width="2"><ellipse cx="20" cy="20.5" rx="20" ry="20.5" stroke="none"/><ellipse cx="20" cy="20.5" rx="19" ry="19.5"/></g><path id="Прямоугольник_1_копия" data-name="Прямоугольник 1 копия" d="M67.412 48.909V31H49v4.184l1.952 2.831v-5.15H65.5v14.178h-5.45v-9.178l-5.6 7.8L49 37.757v11.152h1.952v-4.888l3.462 4.925 3.686-5.037v5z" transform="translate(1470.731 341.398)" fill="#007dff"/></g></svg>